<svg width="140" height="36" viewBox="0 0 140 36" fill="none" xmlns="http://www.w3.org/2000/svg">
<g clip-path="url(#clip0_1030_14156)">
<path d="M29.1868 36.0007H0.0126953V0.0532227H28.4565V8.58072H10.1685V13.7182H27.4143V21.9832H10.1685V27.4282H29.1868V36.0082V36.0007Z" fill="#3758F9"/>
<path d="M48.9736 0.0532227C55.1584 0.0532227 59.8825 1.70322 63.146 5.01072C66.4096 8.31072 68.0376 12.5707 68.0376 17.7682C68.0376 22.9657 66.4172 27.3982 63.1689 30.8407C59.9205 34.2832 55.1888 36.0007 48.9736 36.0007H33.3481V0.0532227H48.9736ZM43.5572 27.4282H48.9736C52.0317 27.4282 54.2683 26.4982 55.6985 24.6307C57.121 22.7632 57.8285 20.4457 57.8285 17.6707C57.8285 14.8957 57.0982 12.8107 55.6376 11.0932C54.177 9.37572 51.9557 8.52822 48.966 8.52822H43.5496V27.4282H43.5572Z" fill="#3758F9"/>
<path d="M101.365 36.0007H72.1987V0.0532227H100.643V8.58072H82.3545V13.7182H99.6003V21.9832H82.3545V27.4282H101.365V36.0082V36.0007Z" fill="#3758F9"/>
<path d="M129.931 19.6725C129.862 18.6075 129.764 16.1625 129.619 12.33V0H139.988V35.9475H131.239L116.025 16.59L116.184 24.4425V35.9475H105.77V0H114.518L129.938 19.6725H129.931Z" fill="#3758F9"/>
</g>
<defs>
<clipPath id="clip0_1030_14156">
<rect width="140" height="36" fill="white"/>
</clipPath>
</defs>
</svg>
